<svg xmlns="http://www.w3.org/2000/svg" fill="none" viewBox="0 0 101 37" height="37" width="101">
<path fill="#222222" d="M15.7734 26.2293C15.7734 27.2262 15.3397 28.034 14.8053 28.034C14.271 28.034 13.8364 27.2262 13.8364 26.2293C13.8364 25.2323 14.2701 24.4246 14.8053 24.4246C15.3397 24.4246 15.7734 25.2323 15.7734 26.2293Z"></path>
<path fill="#222222" d="M11.6492 26.2294C11.6492 27.2263 11.2155 28.0341 10.6812 28.0341C10.1468 28.0341 9.71313 27.2263 9.71313 26.2294C9.71313 25.2325 10.1468 24.4247 10.6812 24.4247C11.2155 24.4247 11.6492 25.2325 11.6492 26.2294Z"></path>
<path fill="#222222" d="M12.7656 32.607C10.0826 32.607 7.71973 30.9973 7.0193 28.692C6.97112 28.533 7.06405 28.3656 7.2284 28.3187C7.39189 28.2718 7.56399 28.3622 7.61217 28.5221C8.23516 30.5737 10.3545 32.0059 12.7656 32.0059C15.1766 32.0059 17.2951 30.5737 17.9181 28.5221C17.9663 28.3631 18.1384 28.2718 18.3019 28.3187C18.4654 28.3656 18.5592 28.533 18.511 28.692C17.8114 30.9973 15.4485 32.607 12.7656 32.607Z"></path>
<path fill="#222222" d="M6.47861 29.1818C6.34954 29.1818 6.22907 29.1022 6.18604 28.9767C6.13183 28.8193 6.21874 28.6486 6.38051 28.5958L8.06103 28.0459C8.2228 27.9931 8.39833 28.0777 8.45254 28.2351C8.50675 28.3924 8.41984 28.5632 8.25808 28.6159L6.57756 29.1659C6.544 29.1767 6.5113 29.1818 6.47861 29.1818Z"></path>
<path fill="#222222" d="M18.9829 29.1409C18.9536 29.1409 18.9235 29.1368 18.8943 29.1284L17.2869 28.6613C17.1234 28.6136 17.0305 28.4462 17.0795 28.2871C17.1286 28.1281 17.3007 28.0377 17.4641 28.0854L19.0715 28.5525C19.235 28.6002 19.3279 28.7676 19.2789 28.9267C19.2393 29.0564 19.1163 29.1409 18.9829 29.1409Z"></path>
<path fill="#222222" d="M16.3463 10.6294C16.2663 10.6294 16.1854 10.6193 16.1045 10.5984C15.6097 10.4687 15.3163 9.97396 15.4497 9.49265L17.0553 3.68429C17.1887 3.20299 17.6972 2.91755 18.192 3.04729C18.6868 3.17704 18.9802 3.67174 18.8468 4.15305L17.2412 9.9614C17.1302 10.364 16.7559 10.6294 16.3463 10.6294Z"></path>
<path fill="#222222" d="M13.8539 5.95233C13.3153 5.95233 12.8205 5.89457 12.3851 5.78073C8.90706 4.87085 9.22371 2.67524 9.40355 2.02401C9.75893 0.737449 10.8208 0 12.3171 0C12.8007 0 13.3394 0.0770094 13.9193 0.228517C14.9338 0.493865 16.0344 1.16267 17.1883 2.21486C18.0152 2.96905 18.5685 3.65041 18.5917 3.67887L19.3601 4.6281L18.2062 5.07509C18.1133 5.11108 15.9156 5.95233 13.8539 5.95233ZM12.3171 1.8047C11.4954 1.8047 11.288 2.15208 11.1942 2.49276C11.1236 2.74806 10.9085 3.52653 12.8661 4.03797C13.1449 4.1108 13.4771 4.14763 13.8539 4.14763C14.6611 4.14763 15.5241 3.98021 16.2099 3.8036C15.4441 3.06447 14.39 2.21988 13.4375 1.97044C13.015 1.86078 12.6381 1.8047 12.3171 1.8047Z"></path>
<path fill="#222222" d="M23.4084 8.4735C23.4075 8.4735 23.4075 8.4735 23.4084 8.4735C22.9248 8.4735 22.3853 8.3965 21.8062 8.24499C20.7916 7.97964 19.692 7.31083 18.5372 6.25865C17.7111 5.50446 17.157 4.82309 17.1338 4.79463L16.3662 3.84541L17.5201 3.39842C17.6122 3.36242 19.8098 2.52118 21.8716 2.52118C22.4102 2.52118 22.905 2.57894 23.3412 2.69278C26.8193 3.60266 26.5026 5.79826 26.3219 6.4495C25.9666 7.73606 24.9047 8.4735 23.4084 8.4735ZM19.5156 4.66991C20.2814 5.40903 21.3355 6.25362 22.2872 6.50307C22.7097 6.61356 23.0865 6.66964 23.4075 6.66964C24.2293 6.66964 24.4366 6.32226 24.5304 5.98242C24.601 5.72711 24.8161 4.94865 22.8585 4.43721C22.5797 4.36438 22.2476 4.32755 21.8707 4.32755C21.0644 4.32588 20.2014 4.49329 19.5156 4.66991Z"></path>
<path fill="#CD126E" d="M19.8197 4.74893C19.5288 5.80111 18.4162 6.42472 17.3346 6.14179C16.253 5.85887 15.6128 4.77655 15.9036 3.72521C16.1945 2.67302 17.3071 2.05025 18.3878 2.33318C19.4694 2.61527 20.1105 3.69758 19.8197 4.74893Z"></path>
<path fill="#CD126E" d="M17.8635 7.11191C17.6045 7.11191 17.3463 7.07843 17.0951 7.01314C15.5221 6.6013 14.5859 5.02177 15.0093 3.49079C15.356 2.23772 16.5289 1.36215 17.8617 1.36215C18.1207 1.36215 18.3789 1.39563 18.6301 1.46093C20.204 1.87276 21.1393 3.45313 20.7168 4.98327C20.3692 6.23718 19.1963 7.11191 17.8635 7.11191ZM17.8609 3.16685C17.3652 3.16685 16.929 3.49247 16.7999 3.95955C16.6424 4.52958 16.9909 5.11804 17.5769 5.27122C17.6716 5.29549 17.7679 5.30805 17.8635 5.30805C18.3591 5.30805 18.7954 4.98243 18.9244 4.51535C19.0819 3.94532 18.7334 3.3577 18.1474 3.20452C18.0536 3.17941 17.9564 3.16685 17.8609 3.16685Z"></path>
<path fill="#222222" d="M26.6937 29.6162C26.3633 29.6162 26.0329 29.5861 25.7102 29.5258C25.2068 29.432 24.8773 28.9599 24.9728 28.4703C25.0691 27.9806 25.5545 27.66 26.0578 27.7529C26.2661 27.7914 26.4803 27.8115 26.6937 27.8115C27.9758 27.8115 29.06 27.1251 29.06 26.3115C29.06 25.641 28.2753 25.0132 27.235 24.8525C26.729 24.7738 26.384 24.3117 26.4648 23.8196C26.5457 23.3274 27.0198 22.9917 27.5267 23.0704C29.4903 23.3742 30.9152 24.737 30.9152 26.3115C30.9152 27.2297 30.4282 28.112 29.5798 28.7314C28.7985 29.3014 27.7736 29.6162 26.6937 29.6162Z"></path>
<path fill="#222222" d="M23.9532 27.3314C23.874 27.3314 23.7949 27.3021 23.7346 27.2435C23.6142 27.1263 23.6142 26.9355 23.7346 26.8183C24.8102 25.7719 26.7979 26.0281 26.8814 26.039C27.0509 26.0616 27.1688 26.2139 27.1447 26.378C27.1215 26.542 26.9649 26.6567 26.7962 26.6341C26.7695 26.6308 25.0262 26.4115 24.1718 27.2426C24.1115 27.3021 24.0324 27.3314 23.9532 27.3314Z"></path>
<path fill="#CD126E" d="M20.0638 22.5418C22.7011 23.1177 25.2086 23.6668 27.3796 23.9522C27.4303 23.4935 27.457 23.0256 27.457 22.5535C27.457 15.4653 21.5515 9.72137 14.2659 9.72137C17.4643 9.72137 20.0612 15.4586 20.0638 22.5418Z"></path>
<path fill="#584592" d="M8.49902 21.2424C10.5478 21.018 13.1241 21.1009 16.3449 21.7513C17.5994 22.0049 18.8454 22.2761 20.0647 22.5423C20.0621 15.4591 17.4652 9.72192 14.2668 9.72192C11.2646 9.72192 8.79589 14.7702 8.49902 21.2424Z"></path>
<path fill="#222222" d="M14.2664 36.288C6.48168 36.288 0.147705 30.1272 0.147705 22.5535C0.147705 14.9807 6.48168 8.81906 14.2664 8.81906C22.052 8.81906 28.3852 14.9807 28.3852 22.5535C28.3852 23.0532 28.3568 23.5588 28.3017 24.0586L26.4577 23.8635C26.5059 23.4291 26.5308 22.988 26.5308 22.5535C26.5308 15.9751 21.0289 10.6238 14.2673 10.6238C7.50479 10.6238 2.00376 15.9759 2.00376 22.5535C2.00376 29.132 7.50479 34.4833 14.2673 34.4833C18.7814 34.4833 22.9203 32.0793 25.068 28.2095L26.7003 29.0667C24.2273 33.5215 19.4629 36.288 14.2664 36.288Z"></path>
<path fill="#222222" d="M1.30762 25.594C1.15187 25.594 0.994407 25.5554 0.848986 25.4751C0.404119 25.2282 0.248373 24.6774 0.502214 24.2446C0.644193 24.0027 4.11192 18.3567 16.5329 20.8671C17.8314 21.1299 19.1247 21.412 20.3758 21.6849C25.7994 22.8693 30.9218 23.9876 32.9052 22.655C33.3897 22.3294 33.6625 21.8582 33.7631 21.1726C33.8552 20.5406 33.7193 20.0668 33.3355 19.681C32.6901 19.0331 31.3073 18.6104 29.4427 18.4915C27.9041 18.3936 26.5704 18.5334 26.5575 18.535C26.0481 18.5903 25.5903 18.2329 25.5335 17.7382C25.4767 17.2435 25.8433 16.7973 26.3518 16.7421C26.9645 16.6751 32.4044 16.1569 34.6658 18.4237C35.4488 19.2089 35.7724 20.2477 35.5994 21.4271C35.4256 22.6132 34.874 23.5264 33.9593 24.1408C31.3082 25.9221 26.0541 24.7745 19.9697 23.4461C18.7263 23.1748 17.4399 22.8936 16.156 22.6341C10.2575 21.4413 6.7011 22.2491 4.75642 23.1355C2.80657 24.0253 2.12077 25.1269 2.11389 25.1378C1.94351 25.4307 1.6303 25.594 1.30762 25.594Z"></path>
<path fill="#222222" d="M20.0651 22.8451C19.8947 22.8451 19.7562 22.7103 19.7562 22.5445C19.7553 19.1595 19.1607 15.9828 18.0826 13.5981C17.0397 11.2928 15.6853 10.023 14.2681 10.023C11.4965 10.023 9.0983 14.9574 8.81004 21.2563C8.8023 21.4221 8.6586 21.551 8.48736 21.5434C8.31699 21.5359 8.18447 21.3953 8.19222 21.2295C8.3385 18.0454 9.01311 15.0956 10.0922 12.9242C11.2151 10.665 12.6985 9.42114 14.2681 9.42114C15.9451 9.42114 17.5017 10.8182 18.6487 13.3553C19.7613 15.8146 20.374 19.0775 20.3749 22.5437C20.374 22.7103 20.2363 22.8442 20.0651 22.8451Z"></path>
<path fill="black" d="M56.322 29.5512C55.3926 29.5885 54.5697 29.5698 53.8533 29.4952C53.1563 29.4206 52.469 29.2434 51.7913 28.9637C51.7526 28.945 51.7139 28.8984 51.6751 28.8238C51.6364 28.7492 51.5977 28.6932 51.559 28.6559C51.4428 28.6 51.2976 28.5813 51.1233 28.6C50.9684 28.6 50.8329 28.5813 50.7167 28.544C50.5618 28.4694 50.3198 28.3295 49.9906 28.1244C49.6615 27.9005 49.3614 27.6954 49.0903 27.5089C48.7418 27.2477 48.4126 26.9866 48.1029 26.7255C47.7931 26.4644 47.522 26.1846 47.2897 25.8862C47.2316 25.8116 47.1541 25.7743 47.0573 25.7743C46.9605 25.7556 46.8734 25.7276 46.7959 25.6903C46.2344 26.0261 45.7601 26.4457 45.3728 26.9493C44.9856 27.4529 44.6177 27.9658 44.2692 28.4881C43.9207 29.0103 43.5528 29.5046 43.1656 29.9708C42.7783 30.4371 42.2846 30.7915 41.6844 31.034C41.5101 31.034 41.3552 31.006 41.2197 30.95C41.0842 30.8941 40.9583 30.8195 40.8421 30.7262C40.726 30.6516 40.6098 30.577 40.4936 30.5024C40.3774 30.4278 40.2516 30.3718 40.1161 30.3345C40.1161 30.1107 40.0677 29.9056 39.9708 29.719C39.8934 29.5325 39.8063 29.3553 39.7095 29.1875C39.632 29.0196 39.5739 28.8611 39.5352 28.7119C39.4965 28.544 39.5352 28.3855 39.6514 28.2363C39.5352 28.1244 39.3609 28.0031 39.1286 27.8726C39.2448 27.7606 39.2932 27.6581 39.2738 27.5648C39.2738 27.4716 39.2545 27.3783 39.2157 27.285C39.177 27.1918 39.1383 27.0892 39.0996 26.9773C39.0802 26.8654 39.1092 26.7535 39.1867 26.6416C39.2835 26.6416 39.3997 26.6229 39.5352 26.5856C39.419 26.4364 39.3609 26.3525 39.3609 26.3338C39.3803 26.2965 39.3609 26.2499 39.3029 26.1939C39.2641 26.082 39.2835 26.0167 39.3609 25.9981C39.4384 25.9608 39.5158 25.9235 39.5933 25.8862C39.6707 24.9723 39.8353 24.1236 40.087 23.3403C40.3387 22.5569 40.6195 21.8015 40.9293 21.0741C41.2391 20.3467 41.5392 19.61 41.8296 18.8639C42.1394 18.1179 42.3911 17.3159 42.5847 16.4579C42.7977 16.2527 42.9623 16.0103 43.0784 15.7305C43.214 15.4507 43.3495 15.171 43.485 14.8912C43.6399 14.6114 43.8045 14.341 43.9788 14.0799C44.1724 13.8001 44.4338 13.5763 44.7629 13.4084C45.034 13.4271 45.276 13.5017 45.489 13.6322C45.702 13.7441 45.9634 13.7908 46.2732 13.7721C46.3312 13.8654 46.3796 13.9586 46.4184 14.0519C46.4765 14.1451 46.5442 14.2384 46.6217 14.3317L47.0573 14.2477C47.2703 14.4156 47.4542 14.6301 47.6091 14.8912C47.7834 15.1337 47.8996 15.3948 47.9576 15.6746C48.0157 15.9543 48.006 16.2248 47.9286 16.4859C47.8511 16.7284 47.6672 16.9242 47.3768 17.0734C47.3961 17.1667 47.3961 17.2413 47.3768 17.2972C47.3768 17.3345 47.3671 17.3718 47.3477 17.4091C47.3284 17.4464 47.3187 17.4837 47.3187 17.521C47.3187 17.5583 47.3477 17.6143 47.4058 17.6889C47.0186 17.9687 46.7282 18.3604 46.5345 18.8639C46.3409 19.3675 46.2344 19.8152 46.2151 20.2068C46.4474 19.983 46.6991 19.7685 46.9702 19.5634C47.2606 19.3395 47.551 19.1251 47.8415 18.9199C48.1513 18.7147 48.4417 18.5189 48.7128 18.3324C49.0032 18.1459 49.2646 17.9593 49.4969 17.7728C50.1359 17.2133 50.7458 16.7657 51.3266 16.4299C51.9268 16.0756 52.5561 15.6839 53.2144 15.2549C53.3693 15.2176 53.4855 15.2176 53.5629 15.2549C53.6597 15.2735 53.7565 15.3015 53.8533 15.3388C53.8533 15.2269 53.8146 15.1616 53.7372 15.143C53.6791 15.1243 53.6597 15.0497 53.6791 14.9192C53.9695 14.8446 54.2212 14.7606 54.4342 14.6674C54.6472 14.5555 54.8795 14.4529 55.1312 14.3596C55.3055 14.5275 55.4701 14.7047 55.625 14.8912C55.7799 15.0591 55.9928 15.1616 56.2639 15.1989C56.3607 15.4041 56.4769 15.5626 56.6124 15.6746C56.748 15.7678 56.8835 15.8611 57.019 15.9543C57.1546 16.0476 57.2707 16.1595 57.3675 16.29C57.4837 16.4206 57.5515 16.6258 57.5708 16.9055C57.4934 17.0361 57.4063 17.176 57.3094 17.3252C57.232 17.4744 57.1546 17.6516 57.0771 17.8568C56.6899 18.1925 56.2929 18.4909 55.8863 18.752C55.4991 19.0131 55.1022 19.2649 54.6956 19.5074C54.289 19.7499 53.8727 19.9923 53.4467 20.2348C53.0208 20.4773 52.5851 20.7664 52.1398 21.1021C52.043 21.2327 51.9172 21.3539 51.7623 21.4658C51.6267 21.5591 51.4815 21.6616 51.3266 21.7736C51.1717 21.8668 51.0265 21.9694 50.891 22.0813C50.7554 22.1932 50.6489 22.3238 50.5715 22.473C50.5134 22.4916 50.4553 22.501 50.3972 22.501C50.3392 22.501 50.2811 22.5103 50.223 22.5289C50.1649 22.6595 50.0681 22.7621 49.9326 22.8367C49.8164 22.9113 49.7389 23.0139 49.7002 23.1444C49.9906 23.7413 50.3682 24.1982 50.8329 24.5153C51.2976 24.8324 51.8203 25.0655 52.4012 25.2147C52.9821 25.3453 53.6113 25.4199 54.289 25.4386C54.9667 25.4386 55.6734 25.4386 56.4091 25.4386C56.4866 25.4199 56.5156 25.3826 56.4962 25.3266C56.4962 25.252 56.5446 25.2241 56.6415 25.2427C57.1061 25.3919 57.4643 25.6064 57.716 25.8862C57.9678 26.1473 58.2679 26.4084 58.6164 26.6695C58.5777 27.3783 58.355 27.9658 57.9484 28.4321C57.5418 28.8984 56.9997 29.2714 56.322 29.5512Z"></path>
<path fill="black" d="M64.1636 28.6C64.2604 29.1595 64.2217 29.5978 64.0474 29.9149C63.8925 30.232 63.6602 30.4651 63.3504 30.6143C63.0599 30.7822 62.7211 30.8754 62.3339 30.8941C61.9466 30.9127 61.5787 30.8941 61.2302 30.8381C61.0366 30.577 60.8624 30.2506 60.7075 29.8589C60.5526 29.4673 60.4074 29.0662 60.2718 28.6559C60.1363 28.2269 60.0104 27.8073 59.8943 27.3969C59.7975 26.9866 59.7103 26.6229 59.6329 26.3058C59.7297 26.082 59.7878 25.8302 59.8071 25.5505C59.8459 25.252 59.8652 24.9536 59.8652 24.6552C59.8846 24.3568 59.8943 24.0583 59.8943 23.7599C59.9136 23.4429 59.9427 23.1444 59.9814 22.8647C60.1169 22.0813 60.3105 21.3352 60.5622 20.6265C60.8333 19.9177 61.0463 19.181 61.2012 18.4163C61.2399 18.2484 61.2206 18.0899 61.1431 17.9407C61.085 17.7915 61.0753 17.6516 61.1141 17.521C61.1334 17.4464 61.1915 17.3998 61.2883 17.3812C61.3851 17.3439 61.4432 17.2786 61.4626 17.1853C61.5207 16.9801 61.5303 16.8123 61.4916 16.6817C61.4723 16.5512 61.511 16.3926 61.6078 16.2061C61.7046 16.0569 61.8208 15.8424 61.9563 15.5626C62.1112 15.2642 62.1693 14.9565 62.1306 14.6394C62.3048 14.5275 62.4694 14.3969 62.6243 14.2477C62.7792 14.0985 62.9341 13.968 63.089 13.856C63.2632 13.7255 63.4472 13.6136 63.6408 13.5203C63.8538 13.4271 64.1055 13.3804 64.3959 13.3804C64.5508 13.5669 64.6476 13.7721 64.6863 13.9959C64.7444 14.2197 64.7928 14.4436 64.8316 14.6674C64.8896 14.8912 64.9671 15.1057 65.0639 15.3109C65.1607 15.4974 65.3253 15.6466 65.5576 15.7585C65.5576 15.9077 65.5576 16.0942 65.5576 16.318C65.5576 16.5418 65.5673 16.7657 65.5867 16.9895C65.606 17.1946 65.6448 17.3905 65.7028 17.577C65.7803 17.7449 65.8965 17.8568 66.0514 17.9127C65.7028 18.808 65.3737 19.6939 65.0639 20.5705C64.7735 21.4472 64.5314 22.3331 64.3378 23.2284C64.1442 24.105 64.0184 24.9909 63.9603 25.8862C63.9215 26.7815 63.9893 27.686 64.1636 28.6Z"></path>
<path fill="black" d="M81.8507 23.0045C81.8313 23.0978 81.812 23.1817 81.7926 23.2563C81.7732 23.3123 81.7539 23.3682 81.7345 23.4242C81.7151 23.4802 81.7055 23.5548 81.7055 23.648C81.7055 23.7226 81.7055 23.8252 81.7055 23.9558C81.1246 24.9443 80.3889 25.7743 79.4982 26.4457C78.6269 27.1172 77.6588 27.714 76.5939 28.2363C75.5484 28.7398 74.4544 29.2061 73.3121 29.6351C72.1697 30.0454 71.0564 30.4931 69.9721 30.978C69.5075 30.8661 69.1493 30.6796 68.8976 30.4185C68.6652 30.1574 68.4813 29.8589 68.3457 29.5232C68.2296 29.1688 68.1424 28.7865 68.0844 28.3761C68.0456 27.9472 68.0069 27.5089 67.9682 27.0612C68.0263 26.8561 68.1037 26.6882 68.2005 26.5576C68.3167 26.4084 68.3748 26.2033 68.3748 25.9421C68.5297 25.4572 68.6846 24.9816 68.8395 24.5153C68.9944 24.049 69.0912 23.5734 69.1299 23.0885C69.188 22.9393 69.2945 22.8367 69.4494 22.7807C69.5462 21.8855 69.5462 20.9809 69.4494 20.067C69.3719 19.1344 69.217 18.2671 68.9847 17.4651C69.004 17.2786 69.0234 17.148 69.0428 17.0734C69.0815 16.9801 69.0815 16.9149 69.0428 16.8776C69.0234 16.7284 69.0718 16.6538 69.188 16.6538C69.3235 16.6538 69.4591 16.6538 69.5946 16.6538C69.5946 16.374 69.5365 16.0942 69.4203 15.8144C69.3235 15.5347 69.2267 15.2176 69.1299 14.8632C69.2654 14.5834 69.3526 14.313 69.3913 14.0519C69.43 13.7721 69.5171 13.5296 69.6527 13.3245C70.6982 13.6416 71.6954 14.0239 72.6441 14.4715C73.6122 14.9192 74.5609 15.2456 75.4903 15.4507C76.1873 15.9357 76.9037 16.4206 77.6395 16.9055C78.3752 17.3718 79.0432 17.8941 79.6434 18.4723C80.2436 19.0318 80.7471 19.6753 81.1537 20.4027C81.5603 21.1301 81.7926 21.9974 81.8507 23.0045ZM74.9675 24.5433C75.3741 24.3941 75.771 24.2355 76.1583 24.0677C76.5649 23.8998 76.9328 23.7133 77.2619 23.5081C77.6104 23.2843 77.9202 23.0325 78.1913 22.7528C78.4623 22.473 78.685 22.1373 78.8593 21.7456C78.7431 21.5218 78.5882 21.3259 78.3946 21.1581C78.201 20.9715 78.0073 20.8037 77.8137 20.6545C77.6201 20.4866 77.4265 20.3187 77.2329 20.1509C77.0586 19.983 76.9134 19.7779 76.7972 19.5354C76.5455 19.4981 76.3229 19.4328 76.1292 19.3395C75.9356 19.2276 75.742 19.1251 75.5484 19.0318C75.3741 18.9199 75.1805 18.8173 74.9675 18.7241C74.7739 18.6308 74.5416 18.5748 74.2705 18.5562C73.8445 18.351 73.4573 18.2018 73.1088 18.1086C72.7796 18.0153 72.5279 17.8941 72.3537 17.7449C72.2181 17.7449 72.1116 17.7728 72.0342 17.8288C72.2278 18.5375 72.373 19.209 72.4698 19.8431C72.5666 20.4586 72.615 21.0835 72.615 21.7176C72.6344 22.3331 72.6054 22.9672 72.5279 23.62C72.4505 24.2728 72.344 24.9816 72.2084 25.7463C72.4021 25.7276 72.5763 25.6903 72.7312 25.6344C72.9055 25.5598 73.07 25.4852 73.2249 25.4106C73.3992 25.336 73.5735 25.2707 73.7477 25.2147C73.9413 25.1401 74.164 25.0935 74.4157 25.0748C74.4738 24.9629 74.5512 24.8697 74.648 24.7951C74.7642 24.7205 74.8707 24.6365 74.9675 24.5433Z"></path>
<path fill="black" d="M99.1602 14.6394C99.199 15.0497 99.2667 15.4041 99.3635 15.7025C99.4603 16.001 99.5668 16.29 99.683 16.5698C99.7798 16.8309 99.8669 17.0921 99.9444 17.3532C100.041 17.5956 100.109 17.8941 100.148 18.2484C99.9928 18.7334 99.8766 19.181 99.7992 19.5913C99.7411 20.0017 99.6733 20.4307 99.5959 20.8783C99.2861 21.5311 98.986 22.1093 98.6956 22.6129C98.4051 23.1165 98.1728 23.5548 97.9985 23.9278C97.9017 24.021 97.8146 24.133 97.7371 24.2635C97.6791 24.3754 97.6113 24.4967 97.5338 24.6272C97.4951 24.6832 97.4467 24.7671 97.3886 24.879C97.3305 24.9909 97.2821 25.0655 97.2434 25.1028L96.6626 24.907L96.5464 25.6064L96.1398 25.7183L95.8494 26.054C95.4815 26.6695 95.0942 27.1918 94.6876 27.6208C94.281 28.0311 93.8163 28.4041 93.2936 28.7398C92.7902 29.0569 92.2093 29.3553 91.551 29.6351C90.9121 29.9149 90.186 30.2226 89.3728 30.5584C89.0436 30.5211 88.7532 30.5024 88.5015 30.5024C88.2692 30.4838 88.0465 30.4651 87.8335 30.4464C87.4656 30.4464 87.0106 30.4185 86.4685 30.3625C86.4104 30.2133 86.3233 30.1107 86.2071 30.0548C86.0909 29.9988 85.9845 29.9708 85.8876 29.9708C85.5585 29.8216 85.3068 29.6071 85.1325 29.3274C84.9776 29.0289 84.8227 28.7119 84.6678 28.3761C84.571 28.171 84.4742 27.9845 84.3774 27.8166C84.2806 27.6301 84.1741 27.4436 84.0579 27.2571L84.5517 27.1172L83.9127 26.4457C83.874 26.3898 83.8256 26.3431 83.7675 26.3058C83.7094 26.2499 83.661 26.1939 83.6223 26.138L83.5933 25.6903C83.5352 24.4034 83.5061 23.2284 83.5061 22.1652C83.5255 21.0835 83.6804 20.1229 83.9708 19.2836V18.9758C84.0289 18.5655 84.087 18.2298 84.1451 17.9687C84.2032 17.6889 84.2516 17.4278 84.2903 17.1853C84.3484 16.775 84.4355 16.3926 84.5517 16.0383C84.8227 15.9823 85.026 15.8797 85.1616 15.7305C85.2971 15.5626 85.4133 15.4134 85.5101 15.2829C85.7812 15.2642 85.9651 15.3015 86.0619 15.3948C86.1587 15.488 86.2555 15.6372 86.3523 15.8424C86.4491 16.0103 86.5653 16.1968 86.7008 16.402C86.8557 16.6071 87.0784 16.7657 87.3688 16.8776C87.4076 17.0268 87.456 17.1853 87.514 17.3532C87.5915 17.5024 87.6689 17.6703 87.7464 17.8568C87.9013 18.1738 88.0368 18.5096 88.153 18.8639C88.2885 19.1997 88.366 19.5261 88.3853 19.8431C88.1917 20.1975 88.0368 20.6078 87.9206 21.0741C87.8238 21.5404 87.7561 22.016 87.7173 22.501C87.698 22.9672 87.7077 23.4242 87.7464 23.8718C87.8045 24.3008 87.8916 24.6645 88.0078 24.9629L88.182 25.3266L88.6758 25.2707C89.2566 25.1215 89.7794 24.9629 90.2441 24.7951C90.7281 24.6086 91.1734 24.3941 91.58 24.1516C91.9866 23.9091 92.3739 23.6294 92.7418 23.3123C93.1096 22.9766 93.4969 22.5942 93.9035 22.1652C94.3101 21.7363 94.6586 21.2513 94.949 20.7104C95.2588 20.1509 95.5105 19.5727 95.7041 18.9758C95.9171 18.379 96.072 17.7915 96.1688 17.2133C96.285 16.6164 96.3624 16.0569 96.4012 15.5347C96.7303 15.4228 96.8949 15.1989 96.8949 14.8632L96.8368 14.5555C96.7594 14.4436 96.7594 14.313 96.8368 14.1638C96.953 13.8094 97.224 13.539 97.65 13.3525C97.9598 13.539 98.2309 13.7441 98.4632 13.968C98.7149 14.1918 98.9473 14.4156 99.1602 14.6394Z"></path>
</svg>
